<svg width="141" height="60" viewBox="0 0 141 60" fill="none" xmlns="http://www.w3.org/2000/svg">
<path d="M139.597 45.712C139.597 38.942 134.109 33.454 127.339 33.454C125.473 33.454 123.711 33.883 122.128 34.629C122.16 34.24 122.187 33.851 122.187 33.454C122.187 25.605 115.824 19.242 107.975 19.242C104.309 19.242 100.978 20.642 98.457 22.922C95.781 19.193 91.42 16.755 86.48 16.755C83.785 16.755 81.267 17.49 79.094 18.752C76.374 8.59901 67.114 1.12201 56.103 1.12201C42.956 1.12201 32.298 11.78 32.298 24.927C32.298 26.557 32.463 28.149 32.775 29.687C29.802 30.793 27.679 33.648 27.679 37.007C27.679 37.016 27.68 37.025 27.68 37.034C27.503 37.022 27.326 37.007 27.146 37.007C24.091 37.007 21.439 38.722 20.093 41.24C18.205 38.879 15.305 37.362 12.046 37.362C6.35599 37.362 1.74199 41.975 1.74199 47.665C1.74199 51.822 4.20999 55.396 7.75499 57.024C8.59899 57.604 9.63399 57.968 10.841 57.968H128.785C129.853 57.968 130.793 57.673 131.59 57.195C136.262 55.466 139.597 50.984 139.597 45.712Z" fill="white" stroke="#6E2B16" stroke-width="2.091" stroke-miterlimit="10"/>
<path d="M10.843 57.444C9.81498 57.444 8.87698 57.157 8.05398 56.592C4.50898 54.955 2.26898 51.469 2.26898 47.666C2.26898 42.274 6.65498 37.888 12.046 37.888C15.029 37.888 17.812 39.23 19.682 41.569L20.181 42.193L20.557 41.489C21.861 39.05 24.386 37.534 27.146 37.534C27.281 37.534 27.414 37.544 27.546 37.553L28.109 37.592L28.207 37.035C28.206 33.982 30.116 31.238 32.959 30.181L33.381 30.024L33.291 29.584C32.982 28.06 32.825 26.494 32.825 24.929C32.825 13.228 41.7 3.27201 53.208 1.83601C51.746 4.64401 50.978 7.76101 50.978 10.912C50.978 21.789 59.827 30.638 70.704 30.638C72.406 30.638 74.12 30.409 75.807 29.955C78.291 33.69 82.406 35.908 86.892 35.908C94.24 35.908 100.218 29.93 100.218 22.582C100.218 22.46 100.212 22.339 100.204 22.219C102.507 20.615 105.188 19.769 107.977 19.769C112.243 19.769 116.223 21.744 118.81 25.098C106.048 25.445 95.487 34.791 93.556 47.324C89.495 41.613 83.024 38.243 75.975 38.243C69.467 38.243 63.415 41.12 59.285 46.158C56.676 43.963 53.4 42.761 49.999 42.761C42.028 42.761 35.544 49.246 35.544 57.217C35.544 57.293 35.546 57.369 35.549 57.444H10.843Z" fill="#F9E9C1"/>
<path d="M52.296 2.50001C51.084 5.14001 50.451 8.01101 50.451 10.911C50.451 22.078 59.536 31.163 70.703 31.163C72.329 31.163 73.966 30.959 75.58 30.557C78.18 34.252 82.352 36.434 86.891 36.434C94.529 36.434 100.743 30.22 100.743 22.582C100.743 22.55 100.743 22.519 100.742 22.488C102.902 21.052 105.392 20.295 107.976 20.295C111.728 20.295 115.249 21.884 117.727 24.623C105.598 25.426 95.618 34.212 93.248 46.043C89.066 40.787 82.784 37.719 75.974 37.719C69.482 37.719 63.433 40.514 59.213 45.425C56.58 43.361 53.348 42.236 49.997 42.236C41.836 42.236 35.179 48.795 35.019 56.918H10.843C9.92299 56.918 9.08599 56.662 8.35199 56.159L8.27699 56.108L8.19499 56.07C4.91399 54.563 2.79399 51.265 2.79399 47.667C2.79399 42.565 6.94399 38.415 12.046 38.415C14.868 38.415 17.502 39.685 19.271 41.898L20.268 43.144L21.02 41.736C22.232 39.468 24.579 38.059 27.146 38.059C27.268 38.059 27.388 38.068 27.508 38.077L27.611 38.084L28.741 38.159L28.732 37.026L28.731 36.976V36.973C28.745 34.179 30.514 31.65 33.142 30.673L33.985 30.36L33.806 29.479C33.504 27.989 33.35 26.458 33.35 24.928C33.35 13.824 41.527 4.32801 52.296 2.50001ZM54.155 1.20901C41.92 2.20101 32.298 12.437 32.298 24.927C32.298 26.557 32.463 28.149 32.775 29.687C29.802 30.793 27.679 33.648 27.679 37.007C27.679 37.016 27.68 37.025 27.68 37.034C27.503 37.022 27.326 37.007 27.146 37.007C24.091 37.007 21.439 38.722 20.093 41.24C18.205 38.879 15.305 37.362 12.046 37.362C6.35599 37.362 1.74199 41.975 1.74199 47.666C1.74199 51.823 4.20999 55.397 7.75499 57.025C8.59899 57.605 9.63399 57.969 10.841 57.969H36.104C36.091 57.718 36.066 57.47 36.066 57.216C36.066 49.523 42.302 43.287 49.995 43.287C53.6 43.287 56.875 44.669 59.348 46.916C63.206 41.966 69.209 38.769 75.971 38.769C83.553 38.769 90.18 42.785 93.895 48.792C95.198 35.776 106.183 25.613 119.543 25.613C119.638 25.613 119.732 25.619 119.827 25.62C117.283 21.778 112.927 19.242 107.974 19.242C104.861 19.242 101.996 20.259 99.658 21.958C99.668 22.166 99.689 22.37 99.689 22.581C99.689 29.65 93.958 35.381 86.889 35.381C82.306 35.381 78.297 32.964 76.036 29.344C74.341 29.834 72.554 30.111 70.701 30.111C60.097 30.111 51.501 21.515 51.501 10.911C51.503 7.36701 52.48 4.05801 54.155 1.20901Z" fill="#6E2B16"/>
</svg>
