<svg width="161" height="83" viewBox="0 0 161 83" fill="none" xmlns="http://www.w3.org/2000/svg">
<path d="M157.018 60.447C156.925 53.728 151.457 48.308 144.717 48.308C142.392 48.308 140.225 48.964 138.371 50.085C135.331 45.388 130.228 43.4 125.372 43.94C123.946 36.676 117.837 31.102 110.317 30.474C107.678 14.355 93.691 2.05202 76.826 2.05202C60.264 2.05202 46.481 13.915 43.49 29.606C41.229 28.683 38.759 28.165 36.166 28.165C25.472 28.165 16.802 36.819 16.771 47.506C13.288 47.957 9.944 49.461 7.247 51.958C-3.985 62.358 3.374 81.135 18.681 81.135H146.479C157.408 81.135 163.152 68.72 157.018 60.447Z" fill="white" stroke="#6E2B16" stroke-width="2.2689" stroke-miterlimit="10"/>
<path d="M18.679 80.565C11.838 80.565 6.03699 76.608 3.54099 70.239C1.04499 63.869 2.61299 57.025 7.63299 52.377C10.189 50.011 13.373 48.523 16.843 48.072L17.339 48.009L17.34 47.509C17.37 37.157 25.814 28.736 36.164 28.736C38.607 28.736 40.998 29.208 43.272 30.136L43.918 30.4L44.049 29.714C46.363 17.574 55.397 7.59401 67.192 4.03801C66.819 5.74301 66.631 7.48803 66.631 9.23903C66.631 20.932 74.826 30.833 86.221 33.048C85.42 35.102 85.013 37.258 85.013 39.468C85.013 41.353 85.323 43.233 85.935 45.063C83.373 46.379 81.745 49.019 81.745 51.928C81.745 56.184 85.208 59.647 89.465 59.647C90.227 59.647 90.985 59.532 91.723 59.304C95.603 66.584 103.067 71.085 111.32 71.085C112.152 71.085 113.011 71.026 113.986 70.902C114.563 74.314 115.821 77.625 117.655 80.565H18.679Z" fill="#FFD469"/>
<path d="M66.445 4.873C66.19 6.311 66.061 7.77202 66.061 9.23802C66.061 20.98 74.137 30.957 85.457 33.47C84.784 35.399 84.444 37.41 84.444 39.467C84.444 41.259 84.715 43.044 85.25 44.789C82.745 46.267 81.176 48.967 81.176 51.927C81.176 56.498 84.895 60.217 89.466 60.217C90.131 60.217 90.792 60.136 91.441 59.974C95.478 67.204 103.009 71.655 111.321 71.655C112.019 71.655 112.735 71.615 113.519 71.531C114.083 74.526 115.131 77.361 116.646 79.994H18.679C12.078 79.994 6.481 76.176 4.073 70.03C1.664 63.884 3.177 57.28 8.021 52.795C10.49 50.509 13.566 49.072 16.917 48.637L17.909 48.509L17.912 47.509C17.941 37.472 26.13 29.306 36.166 29.306C38.535 29.306 40.854 29.762 43.059 30.663L44.35 31.19L44.611 29.82C46.824 18.202 55.299 8.598 66.445 4.873ZM67.975 3.22102C55.536 6.57302 45.927 16.817 43.489 29.606C41.228 28.683 38.758 28.165 36.165 28.165C25.471 28.165 16.801 36.819 16.77 47.506C13.287 47.957 9.94299 49.46 7.24599 51.958C-3.98601 62.358 3.373 81.136 18.68 81.136H118.708C116.534 77.946 115.048 74.25 114.462 70.261C113.434 70.411 112.39 70.515 111.32 70.515C102.87 70.515 95.57 65.664 92.003 58.605C91.213 58.905 90.36 59.077 89.465 59.077C85.517 59.077 82.316 55.876 82.316 51.928C82.316 48.982 84.099 46.454 86.644 45.359C85.97 43.519 85.584 41.541 85.584 39.468C85.584 37.029 86.101 34.712 87.018 32.611C75.777 30.76 67.201 21.003 67.201 9.23903C67.201 7.15803 67.471 5.14202 67.975 3.22102Z" fill="#6E2B16"/>
</svg>
