<svg width="144" height="80" viewBox="0 0 144 80" fill="none" xmlns="http://www.w3.org/2000/svg">
<path d="M126.888 50.316L122.89 45.381C123.77 43.555 124.277 41.515 124.277 39.352C124.277 31.659 118.041 25.423 110.348 25.423C109.321 25.423 108.323 25.542 107.359 25.753C105.264 12.76 94.003 2.83501 80.419 2.83501C73.227 2.83501 66.688 5.621 61.813 10.168C57.61 4.79 51.068 1.32899 43.713 1.32899C31.03 1.32899 20.748 11.611 20.748 24.294C20.748 24.702 20.76 25.107 20.781 25.51C12.726 26.341 6.44298 33.148 6.44298 41.423C6.44298 41.982 6.47298 42.535 6.52898 43.08L3.65499 47.575C-0.839012 54.604 4.20899 63.824 12.552 63.824H120.448C127.421 63.823 131.278 55.735 126.888 50.316Z" fill="white" stroke="#6E2B16" stroke-width="2.091" stroke-miterlimit="10"/>
<path d="M101.841 63.364C103.987 60.517 105.158 57.04 105.158 53.469C105.158 44.394 97.775 37.011 88.7 37.011C88.045 37.011 87.351 37.061 86.589 37.164C83.562 25.747 73.266 17.81 61.406 17.81C59.314 17.81 57.231 18.061 55.208 18.555C52.027 9.98499 43.83 4.258 34.677 4.258C34.252 4.258 33.818 4.274 33.369 4.304C36.555 2.651 40.09 1.785 43.712 1.785C50.682 1.785 57.148 4.942 61.451 10.448L61.759 10.842L62.124 10.501C67.11 5.85201 73.607 3.291 80.418 3.291C93.661 3.291 104.802 12.768 106.906 25.824L106.983 26.302L107.456 26.198C108.424 25.987 109.396 25.879 110.348 25.879C117.777 25.879 123.82 31.922 123.82 39.35C123.82 41.37 123.369 43.331 122.478 45.18L122.352 45.441L126.533 50.602C128.451 52.97 128.828 56.151 127.516 58.902C126.203 61.653 123.495 63.362 120.448 63.362H101.841V63.364Z" fill="#FFD469"/>
<path d="M43.712 2.244C50.54 2.244 56.874 5.338 61.09 10.731L61.705 11.518L62.436 10.836C67.337 6.266 73.723 3.74899 80.418 3.74899C93.435 3.74899 104.385 13.064 106.454 25.897L106.608 26.853L107.554 26.646C108.49 26.441 109.429 26.337 110.347 26.337C117.523 26.337 123.361 32.175 123.361 39.351C123.361 41.302 122.925 43.197 122.065 44.983L121.813 45.506L122.178 45.957L126.176 50.892C127.982 53.122 128.337 56.116 127.102 58.707C125.867 61.297 123.317 62.907 120.447 62.907H102.729C104.601 60.127 105.616 56.839 105.616 53.47C105.616 44.143 98.028 36.554 88.7 36.554C88.141 36.554 87.555 36.589 86.926 36.661C83.718 25.251 73.34 17.354 61.406 17.354C59.413 17.354 57.427 17.577 55.492 18.018C52.251 9.74501 44.394 4.156 35.531 3.817C38.118 2.782 40.888 2.244 43.712 2.244ZM43.712 1.32899C39.11 1.32899 34.828 2.68801 31.235 5.01801C32.358 4.83601 33.502 4.717 34.677 4.717C44.046 4.717 51.991 10.731 54.917 19.102C56.99 18.561 59.164 18.27 61.406 18.27C73.409 18.27 83.478 26.532 86.247 37.677C87.049 37.553 87.863 37.47 88.7 37.47C97.536 37.47 104.7 44.633 104.7 53.47C104.7 57.421 103.261 61.032 100.887 63.823H120.447C127.421 63.823 131.278 55.735 126.888 50.316L122.89 45.381C123.77 43.555 124.277 41.515 124.277 39.352C124.277 31.659 118.041 25.423 110.348 25.423C109.321 25.423 108.323 25.542 107.359 25.753C105.264 12.76 94.003 2.83501 80.419 2.83501C73.226 2.83501 66.688 5.621 61.813 10.168C57.609 4.79 51.067 1.32899 43.712 1.32899Z" fill="#6E2B16"/>
<path d="M141.571 70.938L139.331 68.173C139.824 67.15 140.108 66.007 140.108 64.795C140.108 60.485 136.614 56.991 132.304 56.991C131.729 56.991 131.169 57.058 130.629 57.176C129.456 49.897 123.146 44.336 115.536 44.336C111.507 44.336 107.843 45.897 105.112 48.444C102.757 45.431 99.092 43.492 94.972 43.492C87.867 43.492 82.106 49.252 82.106 56.358C82.106 56.587 82.112 56.814 82.124 57.039C77.611 57.505 74.091 61.318 74.091 65.954C74.091 66.268 74.108 66.577 74.139 66.882L72.529 69.4C70.011 73.338 72.84 78.503 77.514 78.503H137.962C141.87 78.505 144.031 73.974 141.571 70.938Z" fill="white" stroke="#6E2B16" stroke-width="2.091" stroke-miterlimit="10"/>
<path d="M127.933 78.047C129.013 76.482 129.599 74.617 129.599 72.705C129.599 67.51 125.372 63.283 120.177 63.283C119.853 63.283 119.511 63.304 119.143 63.348C117.367 56.955 111.563 52.526 104.886 52.526C103.759 52.526 102.636 52.654 101.539 52.908C99.711 48.188 95.193 45.024 90.129 44.935C91.652 44.287 93.296 43.951 94.973 43.951C98.816 43.951 102.38 45.692 104.753 48.727L105.061 49.121L105.426 48.78C108.182 46.21 111.773 44.795 115.537 44.795C122.857 44.795 129.015 50.033 130.178 57.25L130.255 57.728L130.728 57.624C131.256 57.509 131.787 57.45 132.305 57.45C136.356 57.45 139.651 60.745 139.651 64.796C139.651 65.898 139.405 66.967 138.919 67.974L138.792 68.236L141.216 71.226C142.241 72.493 142.443 74.193 141.741 75.664C141.04 77.135 139.592 78.048 137.963 78.048H127.933V78.047Z" fill="#FFD469"/>
<path d="M94.973 44.409C98.674 44.409 102.107 46.086 104.391 49.009L105.006 49.796L105.737 49.114C108.408 46.623 111.888 45.252 115.536 45.252C122.63 45.252 128.597 50.328 129.725 57.322L129.879 58.278L130.825 58.071C131.321 57.962 131.818 57.907 132.304 57.907C136.102 57.907 139.192 60.997 139.192 64.795C139.192 65.827 138.961 66.83 138.506 67.775L138.254 68.298L138.619 68.749L140.859 71.514C141.786 72.659 141.961 74.136 141.327 75.465C140.693 76.794 139.435 77.588 137.962 77.588H128.759C129.603 76.107 130.056 74.424 130.056 72.704C130.056 67.256 125.624 62.824 120.176 62.824C119.95 62.824 119.718 62.834 119.474 62.854C117.525 56.463 111.637 52.068 104.884 52.068C103.852 52.068 102.823 52.172 101.816 52.378C100.122 48.369 96.531 45.507 92.327 44.704C93.191 44.509 94.077 44.409 94.973 44.409ZM94.973 43.493C92.395 43.493 89.996 44.254 87.983 45.56C88.612 45.458 89.253 45.391 89.911 45.391C95.16 45.391 99.611 48.76 101.25 53.45C102.411 53.147 103.629 52.984 104.885 52.984C111.609 52.984 117.251 57.613 118.802 63.857C119.251 63.788 119.708 63.741 120.176 63.741C125.127 63.741 129.14 67.754 129.14 72.705C129.14 74.919 128.334 76.941 127.004 78.505H137.962C141.869 78.505 144.03 73.974 141.57 70.938L139.33 68.173C139.823 67.15 140.107 66.007 140.107 64.795C140.107 60.485 136.613 56.991 132.303 56.991C131.728 56.991 131.168 57.058 130.629 57.176C129.455 49.897 123.146 44.336 115.536 44.336C111.507 44.336 107.843 45.897 105.112 48.444C102.758 45.432 99.093 43.493 94.973 43.493Z" fill="#6E2B16"/>
</svg>
