<svg width="109" height="45" viewBox="0 0 109 45" fill="none" xmlns="http://www.w3.org/2000/svg">
<path d="M106.098 31.274L103.538 27.379C103.717 26.453 103.818 25.499 103.818 24.521C103.818 16.234 97.1 9.51601 88.813 9.51601C86.386 9.51601 84.102 10.105 82.074 11.128C78.505 5.64601 72.334 2.01302 65.305 2.01302C56.743 2.01302 49.458 7.40103 46.603 14.963C43.712 12.068 39.715 10.277 35.3 10.277C29.687 10.277 24.759 13.178 21.91 17.555C20.29 16.738 18.466 16.268 16.528 16.268C9.91099 16.268 4.54599 21.632 4.54599 28.25C4.54599 29.031 4.62599 29.793 4.76899 30.533L2.72499 33.643C0.0779911 37.672 2.96699 43.028 7.78799 43.028H48.177C48.349 43.028 48.513 43.009 48.678 42.992C48.844 43.005 49.007 43.028 49.179 43.028H99.759C105.795 43.027 109.413 36.319 106.098 31.274Z" fill="white" stroke="#6E2B16" stroke-width="2.6186" stroke-miterlimit="10"/>
<path d="M7.788 42.457C5.737 42.457 3.932 41.379 2.958 39.574C1.984 37.769 2.076 35.67 3.202 33.956L5.373 30.651L5.329 30.423C5.187 29.692 5.11599 28.96 5.11599 28.249C5.11599 21.956 10.235 16.837 16.527 16.837C18.315 16.837 20.039 17.25 21.652 18.065L22.108 18.294L22.387 17.866C25.248 13.471 30.075 10.846 35.299 10.846C39.417 10.846 43.288 12.45 46.198 15.365L46.823 15.991L47.136 15.163C49.454 9.02501 54.718 4.475 61.041 3.054C59.378 6.201 58.504 9.69801 58.504 13.24C58.504 16.849 59.413 20.417 61.138 23.611C56.908 24.439 53.066 26.806 50.413 30.221C47.306 27.182 43.239 25.517 38.887 25.517C29.776 25.517 22.363 32.929 22.363 42.039C22.363 42.179 22.368 42.317 22.375 42.456H7.788V42.457Z" fill="#FFD469"/>
<path d="M59.979 3.92003C58.636 6.84603 57.934 10.025 57.934 13.241C57.934 16.694 58.744 20.11 60.289 23.212C56.421 24.138 52.911 26.317 50.356 29.383C47.205 26.512 43.181 24.946 38.887 24.946C29.513 24.946 21.876 32.531 21.794 41.886H7.788C5.951 41.886 4.333 40.92 3.461 39.303C2.589 37.686 2.67 35.804 3.679 34.268L5.723 31.158L5.978 30.77L5.89 30.315C5.756 29.618 5.687 28.923 5.687 28.249C5.687 22.271 10.55 17.408 16.528 17.408C18.225 17.408 19.863 17.8 21.396 18.573L22.309 19.033L22.866 18.176C25.621 13.943 30.269 11.416 35.3 11.416C39.265 11.416 42.993 12.961 45.796 15.768L47.046 17.02L47.671 15.365C49.773 9.79601 54.374 5.57403 59.979 3.92003ZM62.144 2.26201C54.982 3.40101 49.099 8.35103 46.602 14.963C43.711 12.068 39.714 10.277 35.299 10.277C29.686 10.277 24.758 13.178 21.909 17.555C20.289 16.738 18.465 16.268 16.527 16.268C9.91 16.268 4.545 21.632 4.545 28.25C4.545 29.031 4.625 29.793 4.768 30.533L2.724 33.643C0.0769993 37.672 2.966 43.028 7.787 43.028H22.983C22.963 42.7 22.933 42.374 22.933 42.041C22.933 33.23 30.075 26.088 38.886 26.088C43.454 26.088 47.563 28.019 50.472 31.096C53.153 27.357 57.276 24.737 62.033 24.036C60.165 20.867 59.075 17.185 59.075 13.24C59.075 9.21901 60.209 5.47201 62.144 2.26201Z" fill="#6E2B16"/>
</svg>
